<svg xmlns="http://www.w3.org/2000/svg" viewBox="0 0 48 48" width="48px" height="48px">
  <path fill="#38b2ac" d="M24,9.6c-6.4,0-10.4,3.2-12,9.6c2.4-3.2,5.2-4.4,8.4-3.6c1.8,0.5,3.1,1.9,4.5,3.5 c2.8,2.9,6,6.2,13.1,6.2c6.4,0,10.4-3.2,12-9.6c-2.4,3.2-5.2,4.4-8.4,3.6c-1.8-0.5-3.1-1.9-4.5-3.5C31.3,12.3,28.1,9.6,24,9.6z M12,24c-6.4,0-10.4,3.2-12,9.6c2.4-3.2,5.2-4.4,8.4-3.6c1.8,0.5,3.1,1.9,4.5,3.5c2.8,2.9,6,6.2,13.1,6.2 c6.4,0,10.4-3.2,12-9.6c-2.4,3.2-5.2,4.4-8.4,3.6c-1.8-0.5-3.1-1.9-4.5-3.5C19.3,26.7,16.1,24,12,24z"/>
</svg>