<svg xmlns="http://www.w3.org/2000/svg" viewBox="0 0 48 48" width="48px" height="48px">
  <path fill="#1976d2" d="M6,6h36v36H6V6z"/>
  <path fill="#ffffff" d="M27.5,22v-3h-8.9v3h3.1v12h2.8v-12H27.5z"/>
  <path fill="#ffffff" d="M35.1,25.7c0,3.1-1.8,5.1-4.9,5.1c-2.1,0-3.6-0.8-4.4-2.3l2.3-1.4c0.5,0.8,1.2,1.3,2.1,1.3 c1.1,0,1.8-0.6,1.8-1.8v-0.1c-0.4,0.3-1.1,0.5-1.9,0.5c-2.1,0-3.6-1.3-3.6-3.4c0-2.1,1.4-3.5,3.5-3.5c0.8,0,1.5,0.2,2,0.5v-2.1 h2.3V25.7z M32.6,23.3c-0.6-0.3-1.3-0.5-2-0.5c-1,0-1.7,0.5-1.7,1.3c0,0.8,0.6,1.3,1.7,1.3C31.3,25.4,32.6,24.7,32.6,23.3z"/>
</svg>